<svg xmlns="http://www.w3.org/2000/svg" xmlns:xlink="http://www.w3.org/1999/xlink" contentStyleType="text/css" data-diagram-type="SEQUENCE" height="852px" preserveAspectRatio="none" style="width:1011px;height:852px;background:#FFFFFF;" version="1.1" viewBox="0 0 1011 852" width="1011px" zoomAndPan="magnify"><title>Runtime sequence: process one frame</title><defs/><g><text fill="#000000" font-family="sans-serif" font-size="14" font-weight="bold" lengthAdjust="spacing" textLength="303.0645" x="355.4673" y="27.9951">Runtime sequence: process one frame</text><rect fill="none" height="380.3984" style="stroke:#000000;stroke-width:1.5;" width="856.6494" x="148.3496" y="281.2578"/><rect fill="none" height="175.7969" style="stroke:#000000;stroke-width:1.5;" width="836.6494" x="158.3496" y="305.3906"/><g><title>User</title><rect fill="#000000" fill-opacity="0.00000" height="653.4609" width="8" x="19.9551" y="118.5938"/><line style="stroke:#181818;stroke-width:0.5;stroke-dasharray:5,5;" x1="23" x2="23" y1="118.5938" y2="772.0547"/></g><g><title>main.py</title><rect fill="#000000" fill-opacity="0.00000" height="653.4609" width="8" x="199.6504" y="118.5938"/><line style="stroke:#181818;stroke-width:0.5;stroke-dasharray:5,5;" x1="203.3496" x2="203.3496" y1="118.5938" y2="772.0547"/></g><g><title>LoadSources</title><rect fill="#000000" fill-opacity="0.00000" height="653.4609" width="8" x="474.8208" y="118.5938"/><line style="stroke:#181818;stroke-width:0.5;stroke-dasharray:5,5;" x1="478.0625" x2="478.0625" y1="118.5938" y2="772.0547"/></g><g><title>ImageProcessor</title><rect fill="#000000" fill-opacity="0.00000" height="653.4609" width="8" x="599.4937" y="118.5938"/><line style="stroke:#181818;stroke-width:0.5;stroke-dasharray:5,5;" x1="602.5791" x2="602.5791" y1="118.5938" y2="772.0547"/></g><g><title>DataLogger</title><rect fill="#000000" fill-opacity="0.00000" height="653.4609" width="8" x="759.4199" y="118.5938"/><line style="stroke:#181818;stroke-width:0.5;stroke-dasharray:5,5;" x1="762.4521" x2="762.4521" y1="118.5938" y2="772.0547"/></g><g><title>GeometricObjectsGui</title><rect fill="#000000" fill-opacity="0.00000" height="653.4609" width="8" x="899.1934" y="118.5938"/><line style="stroke:#181818;stroke-width:0.5;stroke-dasharray:5,5;" x1="902.3877" x2="902.3877" y1="118.5938" y2="772.0547"/></g><g class="participant participant-head" data-participant="User"><text fill="#000000" font-family="sans-serif" font-size="14" lengthAdjust="spacing" textLength="31.9102" x="5" y="115.292">User</text><ellipse cx="23.9551" cy="50.7969" fill="#E2E2F0" rx="8" ry="8" style="stroke:#181818;stroke-width:0.5;"/><path d="M23.9551,58.7969 L23.9551,85.7969 M10.9551,66.7969 L36.9551,66.7969 M23.9551,85.7969 L10.9551,100.7969 M23.9551,85.7969 L36.9551,100.7969" fill="none" style="stroke:#181818;stroke-width:0.5;"/></g><g class="participant participant-tail" data-participant="User"><text fill="#000000" font-family="sans-serif" font-size="14" lengthAdjust="spacing" textLength="31.9102" x="5" y="784.0498">User</text><ellipse cx="23.9551" cy="795.8516" fill="#E2E2F0" rx="8" ry="8" style="stroke:#181818;stroke-width:0.5;"/><path d="M23.9551,803.8516 L23.9551,830.8516 M10.9551,811.8516 L36.9551,811.8516 M23.9551,830.8516 L10.9551,845.8516 M23.9551,830.8516 L36.9551,845.8516" fill="none" style="stroke:#181818;stroke-width:0.5;"/></g><g class="participant participant-head" data-participant="Main"><rect fill="#E2E2F0" height="30.2969" rx="2.5" ry="2.5" style="stroke:#181818;stroke-width:0.5;" width="70.6016" x="168.3496" y="87.2969"/><text fill="#000000" font-family="sans-serif" font-size="14" lengthAdjust="spacing" textLength="56.6016" x="175.3496" y="107.292">main.py</text></g><g class="participant participant-tail" data-participant="Main"><rect fill="#E2E2F0" height="30.2969" rx="2.5" ry="2.5" style="stroke:#181818;stroke-width:0.5;" width="70.6016" x="168.3496" y="771.0547"/><text fill="#000000" font-family="sans-serif" font-size="14" lengthAdjust="spacing" textLength="56.6016" x="175.3496" y="791.0498">main.py</text></g><g class="participant participant-head" data-participant="Load"><rect fill="#E2E2F0" height="30.2969" rx="2.5" ry="2.5" style="stroke:#181818;stroke-width:0.5;" width="103.5166" x="427.0625" y="87.2969"/><text fill="#000000" font-family="sans-serif" font-size="14" lengthAdjust="spacing" textLength="89.5166" x="434.0625" y="107.292">LoadSources</text></g><g class="participant participant-tail" data-participant="Load"><rect fill="#E2E2F0" height="30.2969" rx="2.5" ry="2.5" style="stroke:#181818;stroke-width:0.5;" width="103.5166" x="427.0625" y="771.0547"/><text fill="#000000" font-family="sans-serif" font-size="14" lengthAdjust="spacing" textLength="89.5166" x="434.0625" y="791.0498">LoadSources</text></g><g class="participant participant-head" data-participant="Proc"><rect fill="#E2E2F0" height="30.2969" rx="2.5" ry="2.5" style="stroke:#181818;stroke-width:0.5;" width="125.8291" x="540.5791" y="87.2969"/><text fill="#000000" font-family="sans-serif" font-size="14" lengthAdjust="spacing" textLength="111.8291" x="547.5791" y="107.292">ImageProcessor</text></g><g class="participant participant-tail" data-participant="Proc"><rect fill="#E2E2F0" height="30.2969" rx="2.5" ry="2.5" style="stroke:#181818;stroke-width:0.5;" width="125.8291" x="540.5791" y="771.0547"/><text fill="#000000" font-family="sans-serif" font-size="14" lengthAdjust="spacing" textLength="111.8291" x="547.5791" y="791.0498">ImageProcessor</text></g><g class="participant participant-head" data-participant="Logger"><rect fill="#E2E2F0" height="30.2969" rx="2.5" ry="2.5" style="stroke:#181818;stroke-width:0.5;" width="95.9355" x="715.4521" y="87.2969"/><text fill="#000000" font-family="sans-serif" font-size="14" lengthAdjust="spacing" textLength="81.9355" x="722.4521" y="107.292">DataLogger</text></g><g class="participant participant-tail" data-participant="Logger"><rect fill="#E2E2F0" height="30.2969" rx="2.5" ry="2.5" style="stroke:#181818;stroke-width:0.5;" width="95.9355" x="715.4521" y="771.0547"/><text fill="#000000" font-family="sans-serif" font-size="14" lengthAdjust="spacing" textLength="81.9355" x="722.4521" y="791.0498">DataLogger</text></g><g class="participant participant-head" data-participant="GUI"><rect fill="#E2E2F0" height="30.2969" rx="2.5" ry="2.5" style="stroke:#181818;stroke-width:0.5;" width="163.6113" x="821.3877" y="87.2969"/><text fill="#000000" font-family="sans-serif" font-size="14" lengthAdjust="spacing" textLength="149.6113" x="828.3877" y="107.292">GeometricObjectsGui</text></g><g class="participant participant-tail" data-participant="GUI"><rect fill="#E2E2F0" height="30.2969" rx="2.5" ry="2.5" style="stroke:#181818;stroke-width:0.5;" width="163.6113" x="821.3877" y="771.0547"/><text fill="#000000" font-family="sans-serif" font-size="14" lengthAdjust="spacing" textLength="149.6113" x="828.3877" y="791.0498">GeometricObjectsGui</text></g><g class="message" data-participant-1="User" data-participant-2="Main"><polygon fill="#181818" points="191.6504,145.7266,201.6504,149.7266,191.6504,153.7266,195.6504,149.7266" style="stroke:#181818;stroke-width:1;"/><line style="stroke:#181818;stroke-width:1;" x1="23.9551" x2="197.6504" y1="149.7266" y2="149.7266"/><text fill="#000000" font-family="sans-serif" font-size="13" lengthAdjust="spacing" textLength="39.4824" x="30.9551" y="144.6606">start (</text><text fill="#000000" font-family="sans-serif" font-size="13" lengthAdjust="spacing" text-decoration="line-through" textLength="57.9224" x="70.4375" y="144.6606">image or</text><text fill="#000000" font-family="sans-serif" font-size="13" lengthAdjust="spacing" textLength="54.1582" x="132.4922" y="144.6606">camera)</text></g><g class="message" data-participant-1="Main" data-participant-2="Load"><polygon fill="#181818" points="466.8208,174.8594,476.8208,178.8594,466.8208,182.8594,470.8208,178.8594" style="stroke:#181818;stroke-width:1;"/><line style="stroke:#181818;stroke-width:1;" x1="203.6504" x2="472.8208" y1="178.8594" y2="178.8594"/><text fill="#000000" font-family="sans-serif" font-size="13" lengthAdjust="spacing" textLength="251.1704" x="210.6504" y="173.7935">LoadSources(cam_device/image_path)</text></g><g class="message" data-participant-1="Load" data-participant-2="Main"><polygon fill="#181818" points="214.6504,203.9922,204.6504,207.9922,214.6504,211.9922,210.6504,207.9922" style="stroke:#181818;stroke-width:1;"/><line style="stroke:#181818;stroke-width:1;stroke-dasharray:2,2;" x1="208.6504" x2="477.8208" y1="207.9922" y2="207.9922"/><text fill="#000000" font-family="sans-serif" font-size="13" lengthAdjust="spacing" textLength="215.2998" x="220.6504" y="202.9263">initialized (cap/image/is_camera)</text></g><g class="message" data-participant-1="Main" data-participant-2="Proc"><polygon fill="#181818" points="591.4937,233.125,601.4937,237.125,591.4937,241.125,595.4937,237.125" style="stroke:#181818;stroke-width:1;"/><line style="stroke:#181818;stroke-width:1;" x1="203.6504" x2="597.4937" y1="237.125" y2="237.125"/><text fill="#000000" font-family="sans-serif" font-size="13" lengthAdjust="spacing" textLength="199.748" x="210.6504" y="232.0591">ImageProcessor(source=Load)</text></g><g class="message" data-participant-1="Proc" data-participant-2="Main"><polygon fill="#181818" points="214.6504,262.2578,204.6504,266.2578,214.6504,270.2578,210.6504,266.2578" style="stroke:#181818;stroke-width:1;"/><line style="stroke:#181818;stroke-width:1;stroke-dasharray:2,2;" x1="208.6504" x2="602.4937" y1="266.2578" y2="266.2578"/><text fill="#000000" font-family="sans-serif" font-size="13" lengthAdjust="spacing" textLength="37.2544" x="220.6504" y="261.1919">ready</text></g><path d="M148.3496,281.2578 L212.7925,281.2578 L212.7925,288.3906 L202.7925,298.3906 L148.3496,298.3906 L148.3496,281.2578" fill="#EEEEEE" style="stroke:#000000;stroke-width:1.5;"/><rect fill="none" height="380.3984" style="stroke:#000000;stroke-width:1.5;" width="856.6494" x="148.3496" y="281.2578"/><text fill="#000000" font-family="sans-serif" font-size="13" font-weight="bold" lengthAdjust="spacing" textLength="19.4429" x="163.3496" y="294.3247">alt</text><text fill="#000000" font-family="sans-serif" font-size="11" font-weight="bold" lengthAdjust="spacing" textLength="93.9512" x="227.7925" y="293.4683">[camera mode]</text><path d="M158.3496,305.3906 L234.9736,305.3906 L234.9736,312.5234 L224.9736,322.5234 L158.3496,322.5234 L158.3496,305.3906" fill="#EEEEEE" style="stroke:#000000;stroke-width:1.5;"/><rect fill="none" height="175.7969" style="stroke:#000000;stroke-width:1.5;" width="836.6494" x="158.3496" y="305.3906"/><text fill="#000000" font-family="sans-serif" font-size="13" font-weight="bold" lengthAdjust="spacing" textLength="31.624" x="173.3496" y="318.4575">loop</text><text fill="#000000" font-family="sans-serif" font-size="11" font-weight="bold" lengthAdjust="spacing" textLength="85.1265" x="249.9736" y="317.6011">[every frame]</text><g class="message" data-participant-1="Main" data-participant-2="Load"><polygon fill="#181818" points="466.8208,339.6563,476.8208,343.6563,466.8208,347.6563,470.8208,343.6563" style="stroke:#181818;stroke-width:1;"/><line style="stroke:#181818;stroke-width:1;" x1="203.6504" x2="472.8208" y1="343.6563" y2="343.6563"/><text fill="#000000" font-family="sans-serif" font-size="13" lengthAdjust="spacing" textLength="82.9766" x="210.6504" y="338.5903">load_frame()</text></g><g class="message" data-participant-1="Load" data-participant-2="Proc"><polygon fill="#181818" points="591.4937,368.7891,601.4937,372.7891,591.4937,376.7891,595.4937,372.7891" style="stroke:#181818;stroke-width:1;"/><line style="stroke:#181818;stroke-width:1;stroke-dasharray:2,2;" x1="478.8208" x2="597.4937" y1="372.7891" y2="372.7891"/><text fill="#000000" font-family="sans-serif" font-size="13" lengthAdjust="spacing" textLength="38.5493" x="485.8208" y="367.7231">frame</text></g><g class="message" data-participant-1="Proc" data-participant-2="Proc"><line style="stroke:#181818;stroke-width:1;" x1="603.4937" x2="645.4937" y1="401.9219" y2="401.9219"/><line style="stroke:#181818;stroke-width:1;" x1="645.4937" x2="645.4937" y1="401.9219" y2="414.9219"/><line style="stroke:#181818;stroke-width:1;" x1="604.4937" x2="645.4937" y1="414.9219" y2="414.9219"/><polygon fill="#181818" points="614.4937,410.9219,604.4937,414.9219,614.4937,418.9219,610.4937,414.9219" style="stroke:#181818;stroke-width:1;"/><text fill="#000000" font-family="sans-serif" font-size="13" lengthAdjust="spacing" textLength="143.9839" x="610.4937" y="396.856">process_frame(frame)</text></g><g class="message" data-participant-1="Proc" data-participant-2="Logger"><polygon fill="#181818" points="751.4199,440.0547,761.4199,444.0547,751.4199,448.0547,755.4199,444.0547" style="stroke:#181818;stroke-width:1;"/><line style="stroke:#181818;stroke-width:1;" x1="603.4937" x2="757.4199" y1="444.0547" y2="444.0547"/><text fill="#000000" font-family="sans-serif" font-size="13" lengthAdjust="spacing" textLength="109.4653" x="610.4937" y="438.9888">log(shape, color)</text></g><g class="message" data-participant-1="Proc" data-participant-2="GUI"><polygon fill="#181818" points="891.1934,469.1875,901.1934,473.1875,891.1934,477.1875,895.1934,473.1875" style="stroke:#181818;stroke-width:1;"/><line style="stroke:#181818;stroke-width:1;" x1="603.4937" x2="897.1934" y1="473.1875" y2="473.1875"/><text fill="#000000" font-family="sans-serif" font-size="13" lengthAdjust="spacing" textLength="257.772" x="610.4937" y="468.1216">update display(frame with annotations)</text></g><line style="stroke:#000000;stroke-width:1;stroke-dasharray:2,2;" x1="148.3496" x2="1004.999" y1="489.1875" y2="489.1875"/><text fill="#000000" font-family="sans-serif" font-size="11" font-weight="bold" lengthAdjust="spacing" textLength="86.2275" x="153.3496" y="499.3979">[image mode]</text><g class="message" data-participant-1="Main" data-participant-2="Load"><polygon fill="#181818" points="466.8208,520.125,476.8208,524.125,466.8208,528.125,470.8208,524.125" style="stroke:#181818;stroke-width:1;"/><line style="stroke:#181818;stroke-width:1;" x1="203.6504" x2="472.8208" y1="524.125" y2="524.125"/><text fill="#000000" font-family="sans-serif" font-size="13" lengthAdjust="spacing" textLength="112.5313" x="210.6504" y="519.0591">load_frame(path)</text></g><g class="message" data-participant-1="Load" data-participant-2="Proc"><polygon fill="#181818" points="591.4937,549.2578,601.4937,553.2578,591.4937,557.2578,595.4937,553.2578" style="stroke:#181818;stroke-width:1;"/><line style="stroke:#181818;stroke-width:1;stroke-dasharray:2,2;" x1="478.8208" x2="597.4937" y1="553.2578" y2="553.2578"/><text fill="#000000" font-family="sans-serif" font-size="13" lengthAdjust="spacing" textLength="40.4917" x="485.8208" y="548.1919">image</text></g><g class="message" data-participant-1="Proc" data-participant-2="Proc"><line style="stroke:#181818;stroke-width:1;" x1="603.4937" x2="645.4937" y1="582.3906" y2="582.3906"/><line style="stroke:#181818;stroke-width:1;" x1="645.4937" x2="645.4937" y1="582.3906" y2="595.3906"/><line style="stroke:#181818;stroke-width:1;" x1="604.4937" x2="645.4937" y1="595.3906" y2="595.3906"/><polygon fill="#181818" points="614.4937,591.3906,604.4937,595.3906,614.4937,599.3906,610.4937,595.3906" style="stroke:#181818;stroke-width:1;"/><text fill="#000000" font-family="sans-serif" font-size="13" lengthAdjust="spacing" textLength="145.9263" x="610.4937" y="577.3247">process_frame(image)</text></g><g class="message" data-participant-1="Proc" data-participant-2="Logger"><polygon fill="#181818" points="751.4199,620.5234,761.4199,624.5234,751.4199,628.5234,755.4199,624.5234" style="stroke:#181818;stroke-width:1;"/><line style="stroke:#181818;stroke-width:1;" x1="603.4937" x2="757.4199" y1="624.5234" y2="624.5234"/><text fill="#000000" font-family="sans-serif" font-size="13" lengthAdjust="spacing" textLength="109.4653" x="610.4937" y="619.4575">log(shape, color)</text></g><g class="message" data-participant-1="Proc" data-participant-2="GUI"><polygon fill="#181818" points="891.1934,649.6563,901.1934,653.6563,891.1934,657.6563,895.1934,653.6563" style="stroke:#181818;stroke-width:1;"/><line style="stroke:#181818;stroke-width:1;" x1="603.4937" x2="897.1934" y1="653.6563" y2="653.6563"/><text fill="#000000" font-family="sans-serif" font-size="13" lengthAdjust="spacing" textLength="127.626" x="610.4937" y="648.5903">render static image</text></g><g class="message" data-participant-1="Main" data-participant-2="Load"><polygon fill="#181818" points="466.8208,685.7891,476.8208,689.7891,466.8208,693.7891,470.8208,689.7891" style="stroke:#181818;stroke-width:1;"/><line style="stroke:#181818;stroke-width:1;" x1="203.6504" x2="472.8208" y1="689.7891" y2="689.7891"/><text fill="#000000" font-family="sans-serif" font-size="13" lengthAdjust="spacing" textLength="116.835" x="210.6504" y="684.7231">release() [on exit]</text></g><g class="message" data-participant-1="Main" data-participant-2="Proc"><polygon fill="#181818" points="591.4937,714.9219,601.4937,718.9219,591.4937,722.9219,595.4937,718.9219" style="stroke:#181818;stroke-width:1;"/><line style="stroke:#181818;stroke-width:1;" x1="203.6504" x2="597.4937" y1="718.9219" y2="718.9219"/><text fill="#000000" font-family="sans-serif" font-size="13" lengthAdjust="spacing" textLength="253.9761" x="210.6504" y="713.856">release() [delegates to Load if needed]</text></g><path d="M362,731.9219 L362,756.9219 L720,756.9219 L720,741.9219 L710,731.9219 L362,731.9219" fill="#FEFFDD" style="stroke:#181818;stroke-width:0.5;"/><path d="M710,731.9219 L710,741.9219 L720,741.9219 L710,731.9219" fill="#FEFFDD" style="stroke:#181818;stroke-width:0.5;"/><text fill="#000000" font-family="sans-serif" font-size="13" lengthAdjust="spacing" textLength="337.2383" x="368" y="748.9888">ImageProcessor delegates frame IO to LoadSources</text><!--SRC=[ZPB1Rjim38RlUWgY9nkesxk1xJGW2D2XnOQUXYBW9DRXO4kQ97VBddwKv6HnkcBJGP3iZp_vYqoSHe9Fiqqy4KJwFfFLr8CFJbECu2p1Sy29b4ATN837I45v38arUxG9hYPaU-CFLu0HFifv_VVEeVdivY1gXSZtDR6TSA27ci-50kNR6lg02U_SC51OLF9nZMp8JPG2w_kltqYdk9cvi9l7hLAvREZUbm9xY4a2eUawphb1R7MT5fC1MvM9JEP2UpWhln5YP-Y5DTsMk9t7j6zLHYJ-gCsM4-F8lyY0XFZAtdBSNMR8BdjOsszYIVOkYxOgVpwJ3eJc88qO4rGjc9mX1R96vppG2uN3qYvOrjhEAFkk04rxGau6Qa7h-5h2yTyo5ej4sTjNQ6rEJZOqSO-Uha6xqONNfBIcXzaRJ0I6en_nK4NX1wSzeBKkOM9dOuqbQnIDaQ3sxUJ-JPErGtynMGJKlmmMgbN_RsvbB4YvCdKnMz1BnkpWOiG2ZOHH6W9Vd0NwoUdfOaJE22F7GPuhGdBL4p-39J9adfIIvv9fbYaeWTTLVprWy4UXllJs_YYrpFbl]--></g></svg>