<svg xmlns="http://www.w3.org/2000/svg" xmlns:xlink="http://www.w3.org/1999/xlink" contentStyleType="text/css" data-diagram-type="DESCRIPTION" height="422px" preserveAspectRatio="none" style="width:1298px;height:422px;background:#FFFFFF;" version="1.1" viewBox="0 0 1298 422" width="1298px" zoomAndPan="magnify"><title>Runtime component view (high level)</title><defs/><g><g class="title" data-source-line="1"><text fill="#000000" font-family="sans-serif" font-size="14" font-weight="bold" lengthAdjust="spacing" textLength="295.668" x="494.277" y="22.9951">Runtime component view (high level)</text></g><!--cluster Application--><g class="cluster" data-entity="Application" data-source-line="4" data-uid="ent0002" id="cluster_Application"><path d="M8.5,43.2969 L98.7979,43.2969 A3.75,3.75 0 0 1 101.2979,45.7969 L108.2979,65.5938 L547.5,65.5938 A2.5,2.5 0 0 1 550,68.0938 L550,413.4769 A2.5,2.5 0 0 1 547.5,415.9769 L8.5,415.9769 A2.5,2.5 0 0 1 6,413.4769 L6,45.7969 A2.5,2.5 0 0 1 8.5,43.2969" fill="none" style="stroke:#000000;stroke-width:1.5;"/><line style="stroke:#000000;stroke-width:1.5;" x1="6" x2="108.2979" y1="65.5938" y2="65.5938"/><text fill="#000000" font-family="sans-serif" font-size="14" font-weight="bold" lengthAdjust="spacing" textLength="89.2979" x="10" y="58.292">Application</text></g><!--entity Main--><g class="entity" data-entity="Main" data-source-line="5" data-uid="ent0003" id="entity_Main"><rect fill="#ADD8E6" height="46.2969" rx="2.5" ry="2.5" style="stroke:#181818;stroke-width:0.5;" width="96.6016" x="87.7" y="78.2969"/><rect fill="#ADD8E6" height="10" style="stroke:#181818;stroke-width:0.5;" width="15" x="164.3016" y="83.2969"/><rect fill="#ADD8E6" height="2" style="stroke:#181818;stroke-width:0.5;" width="4" x="162.3016" y="85.2969"/><rect fill="#ADD8E6" height="2" style="stroke:#181818;stroke-width:0.5;" width="4" x="162.3016" y="89.2969"/><text fill="#000000" font-family="sans-serif" font-size="14" lengthAdjust="spacing" textLength="56.6016" x="102.7" y="111.292">main.py</text></g><!--entity Load--><g class="entity" data-entity="Load" data-source-line="6" data-uid="ent0004" id="entity_Load"><rect fill="#90EE90" height="46.2969" rx="2.5" ry="2.5" style="stroke:#181818;stroke-width:0.5;" width="129.5166" x="22.24" y="353.6769"/><rect fill="#90EE90" height="10" style="stroke:#181818;stroke-width:0.5;" width="15" x="131.7566" y="358.6769"/><rect fill="#90EE90" height="2" style="stroke:#181818;stroke-width:0.5;" width="4" x="129.7566" y="360.6769"/><rect fill="#90EE90" height="2" style="stroke:#181818;stroke-width:0.5;" width="4" x="129.7566" y="364.6769"/><text fill="#000000" font-family="sans-serif" font-size="14" lengthAdjust="spacing" textLength="89.5166" x="37.24" y="386.672">LoadSources</text></g><!--entity Proc--><g class="entity" data-entity="Proc" data-source-line="7" data-uid="ent0005" id="entity_Proc"><rect fill="#FFFFE0" height="46.2969" rx="2.5" ry="2.5" style="stroke:#181818;stroke-width:0.5;" width="151.8291" x="228.09" y="213.7169"/><rect fill="#FFFFE0" height="10" style="stroke:#181818;stroke-width:0.5;" width="15" x="359.9191" y="218.7169"/><rect fill="#FFFFE0" height="2" style="stroke:#181818;stroke-width:0.5;" width="4" x="357.9191" y="220.7169"/><rect fill="#FFFFE0" height="2" style="stroke:#181818;stroke-width:0.5;" width="4" x="357.9191" y="224.7169"/><text fill="#000000" font-family="sans-serif" font-size="14" lengthAdjust="spacing" textLength="111.8291" x="243.09" y="246.712">ImageProcessor</text></g><!--entity Logger--><g class="entity" data-entity="Logger" data-source-line="8" data-uid="ent0006" id="entity_Logger"><rect fill="#D3D3D3" height="46.2969" rx="2.5" ry="2.5" style="stroke:#181818;stroke-width:0.5;" width="121.9355" x="187.03" y="353.6769"/><rect fill="#D3D3D3" height="10" style="stroke:#181818;stroke-width:0.5;" width="15" x="288.9655" y="358.6769"/><rect fill="#D3D3D3" height="2" style="stroke:#181818;stroke-width:0.5;" width="4" x="286.9655" y="360.6769"/><rect fill="#D3D3D3" height="2" style="stroke:#181818;stroke-width:0.5;" width="4" x="286.9655" y="364.6769"/><text fill="#000000" font-family="sans-serif" font-size="14" lengthAdjust="spacing" textLength="81.9355" x="202.03" y="386.672">DataLogger</text></g><!--entity GUI--><g class="entity" data-entity="GUI" data-source-line="9" data-uid="ent0007" id="entity_GUI"><rect fill="#FFB6C1" height="46.2969" rx="2.5" ry="2.5" style="stroke:#181818;stroke-width:0.5;" width="189.6113" x="344.19" y="353.6769"/><rect fill="#FFB6C1" height="10" style="stroke:#181818;stroke-width:0.5;" width="15" x="513.8013" y="358.6769"/><rect fill="#FFB6C1" height="2" style="stroke:#181818;stroke-width:0.5;" width="4" x="511.8013" y="360.6769"/><rect fill="#FFB6C1" height="2" style="stroke:#181818;stroke-width:0.5;" width="4" x="511.8013" y="364.6769"/><text fill="#000000" font-family="sans-serif" font-size="14" lengthAdjust="spacing" textLength="149.6113" x="359.19" y="386.672">GeometricObjectsGui</text></g><g class="entity" data-entity="GMN13" data-source-line="19" data-uid="ent0014" id="entity_GMN13"><path d="M568.55,349.1269 L568.55,404.5253 L807.446,404.5253 L807.446,359.1269 L797.446,349.1269 L568.55,349.1269" fill="#FEFFDD" style="stroke:#181818;stroke-width:0.5;"/><path d="M797.446,349.1269 L797.446,359.1269 L807.446,359.1269 L797.446,349.1269" fill="#FEFFDD" style="stroke:#181818;stroke-width:1;"/><text fill="#000000" font-family="sans-serif" font-size="13" lengthAdjust="spacing" textLength="105.5806" x="574.55" y="366.1938">Responsibilities:</text><text fill="#000000" font-family="sans-serif" font-size="13" lengthAdjust="spacing" textLength="190.2329" x="574.55" y="381.3266">- open camera or read image</text><text fill="#000000" font-family="sans-serif" font-size="13" lengthAdjust="spacing" textLength="217.896" x="574.55" y="396.4594">- provide frames via load_frame()</text></g><g class="entity" data-entity="GMN16" data-source-line="25" data-uid="ent0017" id="entity_GMN16"><path d="M566.28,201.5969 L566.28,232.8669 L380.39,236.8669 L566.28,240.8669 L566.28,272.1281 A0,0 0 0 0 566.28,272.1281 L935.7155,272.1281 A0,0 0 0 0 935.7155,272.1281 L935.7155,211.5969 L925.7155,201.5969 L566.28,201.5969 A0,0 0 0 0 566.28,201.5969" fill="#FEFFDD" style="stroke:#181818;stroke-width:0.5;"/><path d="M925.7155,201.5969 L925.7155,211.5969 L935.7155,211.5969 L925.7155,201.5969" fill="#FEFFDD" style="stroke:#181818;stroke-width:0.5;"/><text fill="#000000" font-family="sans-serif" font-size="13" lengthAdjust="spacing" textLength="105.5806" x="572.28" y="218.6638">Responsibilities:</text><text fill="#000000" font-family="sans-serif" font-size="13" lengthAdjust="spacing" textLength="348.4355" x="572.28" y="233.7966">- process_frame(frame): detect contours, label, count</text><text fill="#000000" font-family="sans-serif" font-size="13" lengthAdjust="spacing" textLength="119.2788" x="572.28" y="248.9294">- pick color names</text><text fill="#000000" font-family="sans-serif" font-size="13" lengthAdjust="spacing" textLength="188.6333" x="572.28" y="264.0622">- delegate IO to LoadSources</text></g><g class="entity" data-entity="GMN19" data-source-line="32" data-uid="ent0020" id="entity_GMN19"><path d="M842.43,356.6969 L842.43,396.9625 L1029.5609,396.9625 L1029.5609,366.6969 L1019.5609,356.6969 L842.43,356.6969" fill="#FEFFDD" style="stroke:#181818;stroke-width:0.5;"/><path d="M1019.5609,356.6969 L1019.5609,366.6969 L1029.5609,366.6969 L1019.5609,356.6969" fill="#FEFFDD" style="stroke:#181818;stroke-width:1;"/><text fill="#000000" font-family="sans-serif" font-size="13" lengthAdjust="spacing" textLength="105.5806" x="848.43" y="373.7638">Responsibilities:</text><text fill="#000000" font-family="sans-serif" font-size="13" lengthAdjust="spacing" textLength="166.1309" x="848.43" y="388.8966">- persist detection events</text></g><g class="entity" data-entity="GMN22" data-source-line="37" data-uid="ent0023" id="entity_GMN22"><path d="M1064.78,349.1269 L1064.78,404.5253 L1291.2219,404.5253 L1291.2219,359.1269 L1281.2219,349.1269 L1064.78,349.1269" fill="#FEFFDD" style="stroke:#181818;stroke-width:0.5;"/><path d="M1281.2219,349.1269 L1281.2219,359.1269 L1291.2219,359.1269 L1281.2219,349.1269" fill="#FEFFDD" style="stroke:#181818;stroke-width:1;"/><text fill="#000000" font-family="sans-serif" font-size="13" lengthAdjust="spacing" textLength="105.5806" x="1070.78" y="366.1938">Responsibilities:</text><text fill="#000000" font-family="sans-serif" font-size="13" lengthAdjust="spacing" textLength="104.438" x="1070.78" y="381.3266">- display frames</text><text fill="#000000" font-family="sans-serif" font-size="13" lengthAdjust="spacing" textLength="205.4419" x="1070.78" y="396.4594">- show counts / user interaction</text></g><!--link Main to Load--><g class="link" data-entity-1="Main" data-entity-2="Load" data-source-line="12" data-uid="lnk8" id="link_Main_Load"><path d="M117.61,124.8569 C103.12,143.9669 83.92,172.8369 75,201.5969 C59.52,251.5369 62.41,267.3969 70,319.1269 C71.69,330.6169 73.3176,337.3198 76.7076,347.5798" fill="none" id="Main-to-Load" style="stroke:#181818;stroke-width:1;"/><polygon fill="#181818" points="78.59,353.2769,79.5645,343.4763,77.0214,348.5293,71.9684,345.9862,78.59,353.2769" style="stroke:#181818;stroke-width:1;"/><text fill="#000000" font-family="sans-serif" font-size="13" lengthAdjust="spacing" textLength="134.856" x="76" y="241.4338">create / init_source()</text></g><!--link Main to Proc--><g class="link" data-entity-1="Main" data-entity-2="Proc" data-source-line="13" data-uid="lnk9" id="link_Main_Proc"><path d="M164.5,125.0769 C195.49,149.6869 240.0119,185.0448 270.9419,209.6148" fill="none" id="Main-to-Proc" style="stroke:#181818;stroke-width:1;"/><polygon fill="#181818" points="275.64,213.3469,271.0809,204.6168,271.7249,210.2368,266.1049,210.8809,275.64,213.3469" style="stroke:#181818;stroke-width:1;"/><text fill="#000000" font-family="sans-serif" font-size="13" lengthAdjust="spacing" textLength="99.2837" x="221" y="167.6638">create (source)</text></g><!--link Proc to Load--><g class="link" data-entity-1="Proc" data-entity-2="Load" data-source-line="14" data-uid="lnk10" id="link_Proc_Load"><path d="M238.27,260.4469 C225.93,264.4869 213.11,268.5369 201,272.1269 C150.36,287.1369 118.29,260.3269 86,302.1269 C74.97,316.4069 75.0966,331.4579 78.6066,347.3579" fill="none" id="Proc-to-Load" style="stroke:#181818;stroke-width:1;"/><polygon fill="#181818" points="79.9,353.2169,81.8659,343.5662,78.8222,348.3344,74.054,345.2907,79.9,353.2169" style="stroke:#181818;stroke-width:1;"/><text fill="#000000" font-family="sans-serif" font-size="13" lengthAdjust="spacing" textLength="176.1284" x="87" y="315.1938">load_frame()  &#171;delegation&#187;</text></g><!--link Proc to Logger--><g class="link" data-entity-1="Proc" data-entity-2="Logger" data-source-line="15" data-uid="lnk11" id="link_Proc_Logger"><path d="M294.88,260.3369 C284.46,285.9969 269.7863,322.1573 259.3763,347.8073" fill="none" id="Proc-to-Logger" style="stroke:#181818;stroke-width:1;"/><polygon fill="#181818" points="257.12,353.3669,264.2109,346.5317,259.0003,348.7339,256.7981,343.5233,257.12,353.3669" style="stroke:#181818;stroke-width:1;"/><text fill="#000000" font-family="sans-serif" font-size="13" lengthAdjust="spacing" textLength="109.4653" x="278" y="315.1938">log(shape, color)</text></g><!--link Proc to GUI--><g class="link" data-entity-1="Proc" data-entity-2="GUI" data-source-line="16" data-uid="lnk12" id="link_Proc_GUI"><path d="M344.08,260.4669 C361.41,271.5169 381.08,285.9369 396,302.1269 C409.95,317.2669 418.7955,332.3062 426.3755,347.8162" fill="none" id="Proc-to-GUI" style="stroke:#181818;stroke-width:1;"/><polygon fill="#181818" points="429.01,353.2069,428.652,343.3645,426.8146,348.7146,421.4644,346.8772,429.01,353.2069" style="stroke:#181818;stroke-width:1;"/><text fill="#000000" font-family="sans-serif" font-size="13" lengthAdjust="spacing" textLength="82.3799" x="410" y="315.1938">draw/update</text></g><!--link Load to GMN13--><g class="link" data-entity-1="Load" data-entity-2="GMN13" data-source-line="19" data-uid="lnk15" id="link_Load_GMN13"><path d="M113.36,353.2069 C132.44,337.7669 159.68,318.9669 187.5,310.6269 C334.38,266.6069 382.26,279.9769 532.5,310.6269 C568.72,318.0169 606.96,334.1669 636.45,348.6669" fill="none" id="Load-GMN13" style="stroke:#181818;stroke-width:1;stroke-dasharray:7,7;"/></g><!--link Logger to GMN19--><g class="link" data-entity-1="Logger" data-entity-2="GMN19" data-source-line="32" data-uid="lnk21" id="link_Logger_GMN19"><path d="M273.14,353.2269 C291.39,337.7869 317.53,318.9869 344.5,310.6269 C442.77,280.1569 707.51,286.3869 807.5,310.6269 C843.72,319.4069 881.16,340.2769 906.21,356.2569" fill="none" id="Logger-GMN19" style="stroke:#181818;stroke-width:1;stroke-dasharray:7,7;"/></g><!--link GUI to GMN22--><g class="link" data-entity-1="GUI" data-entity-2="GMN22" data-source-line="37" data-uid="lnk24" id="link_GUI_GMN22"><path d="M473.77,353.2969 C498.88,337.7869 534.26,318.8769 568.5,310.6269 C767.7,262.6669 829.1,267.9869 1029.5,310.6269 C1064.29,318.0369 1100.8,334.1869 1128.92,348.6769" fill="none" id="GUI-GMN22" style="stroke:#181818;stroke-width:1;stroke-dasharray:7,7;"/></g><!--SRC=[TLF1Yjim4BtxAwRf9O5rt49FOGcaj8H0bWsRNKfFYs9Fx6baIKZZX53wxnt99aqAkLYMz6RUUpCZ9jO8BvrXQX5Aspfhq30S2KymRgXkGECHzIJxKE6U3CBYntRpzhI6Xjc5ML5uTPhMn4stwmBwqXgM-AbaAjGfQBKBSSr9BaA-jpvtMXdkMbqSFt-PVYhMYzVlszTYo9fbJfK7LIEC5ivfAXMJDIFudS6Lk56ho4pTUGGgm9FymyUrAEMlkiDRuDggQcixNs98uBWVm4kFQ6xHgrQODzuAEbYV0k9k2FY9MjlJRSGtnMfjwnhza3x-NWZK-HQzHDiYUogVTx-mvB3iA8KjtrP3p8RC8VkJPSbKdizxmJCeFIf6A80CyNj8ZiQJVx0aym8Rzu19bewlqcXPtlTUjH8CyFXOeSOwbNW-lmOd5n5UZqEZ73w82stzLS8eUGQLDB_eN2MaMMQiKFle0km-COhx5mpYFj2ED35XcCbP3jQXWL9aU0NMWwYkW6BnqwtpzaWLGX8QP1JLZV0CJGMHx7_AAEukfUlREYH9tuaOG9P6G9nQALbu01bOrD6kl8W-Zif3xnvCb9CEXxeXh9w1BLnDsLrnVL7loqCVAF0WI1e2ykeCtyyd3RYRhA8Wh-my530TXSQUUbT1fYY-L1abblediWlBNm00]--></g></svg>